# xmcd CD database file
#
# Track frame offsets:
#	150
#	14695
#	28462
#	40332
#	56532
#	77182
#	99527
#	117502
#	131180
#	141590
#	153557
#	169465
#
# Disc length: 2453 seconds
#
# Revision: 0
# Processed by: cddbd v1.4b42PL1 Copyright (c) Steve Scherf et al.
# Submitted via: CDex 1.40Beta5
#
DISCID=b909930c
DTITLE=Audrey Malone and the Rhythm Kings - Swing Town
DYEAR=1999
DGENRE=Blues
TTITLE0=Hit That Jive
TTITLE1=Memphis
TTITLE2=On the Double
TTITLE3=Strange
TTITLE4=Swingtown
TTITLE5=St. Louis Blues
TTITLE6=Sin to Tell a Lie
TTITLE7=Birmingham Bounce
TTITLE8=Pan Handle Rag
TTITLE9=Stop, Look, and Listen
TTITLE10=Restless
TTITLE11=E.M.D.
EXTD=YEAR: 1999 ID3G:   0
EXTT0=
EXTT1=
EXTT2=
EXTT3=
EXTT4=
EXTT5=
EXTT6=
EXTT7=
EXTT8=
EXTT9=
EXTT10=
EXTT11=
PLAYORDER=
